<?xml version="1.0" encoding="UTF-8" standalone="no"?><!DOCTYPE svg PUBLIC "-//W3C//DTD SVG 1.1//EN" "http://www.w3.org/Graphics/SVG/1.1/DTD/svg11.dtd"><svg width="100%" height="100%" viewBox="0 0 100 100" version="1.1" xmlns="http://www.w3.org/2000/svg" xmlns:xlink="http://www.w3.org/1999/xlink" xml:space="preserve" xmlns:serif="http://www.serif.com/" style="fill-rule:evenodd;clip-rule:evenodd;stroke-linejoin:round;stroke-miterlimit:2;"><path d="M100,40.523l-29.692,-0l22.474,44.774c-0.009,0.039 -0.029,0.078 -0.038,0.125l-0.05,0.128c-0.019,0.047 -0.038,0.093 -0.048,0.131l-0.029,0.087l-0.069,0.156c-0,0 -0.039,0.102 -0.049,0.129c-0.019,0.047 -0.038,0.091 -0.058,0.139l-0.049,0.119c-0.029,0.073 -0.058,0.14 -0.087,0.214c-0.019,0.039 -0.084,0.172 -0.084,0.172c-0.009,0.029 -0.029,0.057 -0.038,0.077l-0.06,0.103l-0.009,0.01l-0.06,0.116c-0.019,0.037 -0.048,0.084 -0.067,0.121c-0.02,0.029 -0.039,0.068 -0.059,0.104c0,-0 -0.058,0.098 -0.067,0.12l-0.079,0.124c-0.049,0.078 -0.088,0.148 -0.127,0.207l-0.068,0.105l-0.05,0.067l-0.095,0.158c-0.019,0.038 -0.048,0.077 -0.077,0.108c0,-0 -0.048,0.069 -0.068,0.097c-0.028,0.039 -0.052,0.078 -0.071,0.116l-0.07,0.103c-0.877,1.154 -1.943,2.158 -3.166,2.959l-14.288,-28.463l-59.345,29.641l-0.019,-0.009c-0.039,-0.01 -0.078,-0.028 -0.117,-0.048c-0.039,-0.019 -0.078,-0.029 -0.117,-0.048c-0.049,-0.019 -0.088,-0.039 -0.127,-0.058l-0.109,-0.051c-0.049,-0.02 -0.099,-0.039 -0.138,-0.059l-0.118,-0.049c-0.07,-0.027 -0.14,-0.067 -0.21,-0.095l-0.146,-0.069c-0.039,-0.02 -0.078,-0.029 -0.117,-0.048c-0.029,-0.01 -0.1,-0.052 -0.1,-0.052c-0,0 -0.098,-0.048 -0.137,-0.067c-0.039,-0.02 -0.078,-0.039 -0.117,-0.059c-0.038,-0.019 -0.077,-0.039 -0.116,-0.067l-0.118,-0.073l-0.124,-0.081c-0.053,-0.038 -0.123,-0.077 -0.193,-0.115l-0.118,-0.069l-0.09,-0.059l-0.138,-0.087c-0.039,-0.029 -0.077,-0.049 -0.116,-0.081c-0.029,-0.02 -0.108,-0.078 -0.108,-0.078c-0.039,-0.029 -0.067,-0.048 -0.106,-0.069l-0.105,-0.076c-1.145,-0.841 -2.142,-1.872 -2.935,-3.094l28.44,-14.206l-29.74,-59.116c0.86,-2.477 2.523,-4.587 4.674,-6.027l14.22,28.257l73.624,-36.817l-81.017,0c-10.338,0 -18.719,8.356 -18.719,18.662l-0,62.676c-0,10.306 8.381,18.662 18.719,18.662l62.562,-0c10.338,-0 18.719,-8.356 18.719,-18.662l-0,-40.815Z" style="fill:#3e87f4;"/></svg>